<?xml version="1.0" encoding="utf-8"?>
<svg version="1.1" xmlns="http://www.w3.org/2000/svg" xmlns:xlink="http://www.w3.org/1999/xlink" x="0px" y="0px" viewBox="0 0 80 80" style="enable-background:new 0 0 80 80;" xml:space="preserve" id="el_NRYUzZBII"><style type="text/css">@-webkit-keyframes el_x0IP8OmBJO_28MH7mePg_Animation {
    0% {
        -webkit-transform: rotate(0deg);
                transform: rotate(0deg)
    }
    100% {
        -webkit-transform: rotate(360deg);
                transform: rotate(360deg)
    }
}
@keyframes el_x0IP8OmBJO_28MH7mePg_Animation {
    0% {
        -webkit-transform: rotate(0deg);
                transform: rotate(0deg)
    }
    100% {
        -webkit-transform: rotate(360deg);
                transform: rotate(360deg)
    }
}
#el_NRYUzZBII * {
    -webkit-animation-duration: 3s;
            animation-duration: 3s;
    -webkit-animation-iteration-count: infinite;
            animation-iteration-count: infinite;
    -webkit-animation-timing-function: cubic-bezier(0, 0, 1, 1);
            animation-timing-function: cubic-bezier(0, 0, 1, 1)
}
#el_x0IP8OmBJO_28MH7mePg {
    -webkit-animation-name: el_x0IP8OmBJO_28MH7mePg_Animation;
            animation-name: el_x0IP8OmBJO_28MH7mePg_Animation;
    -webkit-transform-origin: 50% 50%;
            transform-origin: 50% 50%;
    transform-box: fill-box
}</style><style/>
<g id="el_y7gKWfuJ6M">
	<g id="el_rgwG9_fko2">
		<path d="M33.5,41.7c0-1.3-0.1-2.6,0-3.9c0.2-2.4,1.5-4,3.8-4.8c2.2-0.8,4.2-0.3,5.9,1.3c0.5,0.4,0.5,0.9,0.2,1.3&#10;&#9;&#9;&#9;c-0.3,0.3-0.8,0.3-1.2-0.1c-1.2-1.1-2.5-1.5-4.1-1.1c-1.8,0.5-3,1.9-3,4c-0.1,2.3,0,4.7,0.1,7c0.1,1.7,1.5,3.2,3.2,3.6&#10;&#9;&#9;&#9;c1.7,0.4,3.5-0.4,4.4-1.8c1-1.6,1-4.9-1-6.3c-1.1-0.7-2.2-1-3.4-0.7c-0.2,0-0.3,0.1-0.5,0.1c-0.5,0.1-0.9-0.1-0.9-0.6&#10;&#9;&#9;&#9;c-0.1-0.4,0.1-0.8,0.6-0.9c1.6-0.5,3.2-0.4,4.6,0.5c2.3,1.4,3,3.5,2.8,6c-0.2,3.2-2.9,5.6-6.1,5.4c-3-0.2-5.3-2.7-5.3-5.8&#10;&#9;&#9;&#9;C33.4,43.7,33.4,42.7,33.5,41.7C33.4,41.7,33.5,41.7,33.5,41.7z" id="el_fSjLOLPdc-"/>
		<path d="M46.6,41.6c0-1.1,0-2.3,0-3.4c0.1-3.1,2.4-5.5,5.4-5.6c3.1-0.1,5.8,2,6,5.2c0.2,2.6,0.1,5.3-0.1,7.9&#10;&#9;&#9;&#9;c-0.2,2.9-2.9,5-5.8,4.9c-2.9-0.1-5.3-2.4-5.4-5.3C46.6,44.1,46.6,42.9,46.6,41.6C46.6,41.6,46.6,41.6,46.6,41.6z M48.1,41.6&#10;&#9;&#9;&#9;C48.1,41.6,48.2,41.6,48.1,41.6c0,1.2,0,2.5,0,3.7c0.1,2.2,2.3,3.9,4.5,3.7c2.3-0.3,3.8-2,3.8-4.3c0-2,0-4,0-6&#10;&#9;&#9;&#9;c0-0.4,0-0.9-0.1-1.3c-0.5-2.1-2.4-3.4-4.5-3.2c-2,0.2-3.5,1.8-3.6,3.9C48.1,39.3,48.1,40.5,48.1,41.6z" id="el_yxCMZvthUP"/>
		<path d="M28.7,39.7c0.7,0.6,1.4,1.2,1.9,1.9c1.9,2.5,1.2,6.2-1.4,8c-2.7,1.8-6.4,1-8-1.7c-0.3-0.5-0.2-0.9,0.2-1.2&#10;&#9;&#9;&#9;c0.4-0.2,0.8-0.1,1.1,0.4c1,1.4,2.3,2.1,4.1,1.9c2.1-0.3,3.6-2.1,3.6-4.2c-0.1-2.1-1.7-3.8-3.8-4c-0.2,0-0.3,0-0.5-0.1&#10;&#9;&#9;&#9;c-0.4-0.1-0.6-0.4-0.6-0.8c0-0.4,0.2-0.7,0.7-0.7c0.2,0,0.4,0,0.6-0.1c1-0.2,1.9-1.1,2-2.2c0.1-1.2-0.5-2.2-1.6-2.6&#10;&#9;&#9;&#9;c-1-0.4-2.2-0.1-2.9,0.8c-0.1,0.1-0.2,0.2-0.3,0.4c-0.3,0.4-0.8,0.4-1.1,0.2c-0.4-0.3-0.4-0.7-0.2-1.1c0.8-1.4,2.7-2.3,4.4-1.8&#10;&#9;&#9;&#9;c3.1,0.8,4.2,4.5,1.9,6.8C28.7,39.6,28.7,39.7,28.7,39.7z" id="el_3JCRurfzod"/>
	</g>
</g>
<g id="el_x0IP8OmBJO_28MH7mePg" data-animator-group="true" data-animator-type="1"><g id="el_x0IP8OmBJO">
	<path d="M62.2,56.4c0.5-0.2,0.9-0.5,1.4-0.7c0.5-0.2,1,0,1.1,0.5c0.1,0.4-0.1,0.7-0.4,0.9c-1.6,0.8-3.2,1.7-4.9,2.5&#10;&#9;&#9;c-0.2,0.1-0.6,0.1-0.8-0.1c-0.2-0.2-0.3-0.6-0.3-0.8c0.4-1.8,0.9-3.5,1.4-5.3c0.1-0.5,0.5-0.7,0.9-0.6c0.4,0.1,0.6,0.5,0.5,1&#10;&#9;&#9;c-0.1,0.5-0.3,1-0.3,1.6c0.4-0.5,0.7-0.9,1.1-1.4c2.2-3.3,3.6-7,4.1-11c0.8-7.8-1.4-14.5-6.9-20.1c-3.5-3.6-7.8-5.9-12.7-6.9&#10;&#9;&#9;c-4.6-0.9-9-0.6-13.4,1c-1.6,0.6-3.1,1.5-4.6,2.2c-0.2,0.1-0.3,0.2-0.4,0.3c-0.4,0.2-0.9,0.1-1.1-0.2c-0.2-0.4-0.1-0.8,0.3-1.1&#10;&#9;&#9;c0.6-0.4,1.3-0.8,1.9-1.2c3.7-2,7.7-3,12-3.1c4.4-0.1,8.5,0.9,12.4,2.9c5.6,2.9,9.7,7.3,12.2,13.1c1.5,3.5,2.2,7.2,2,11.1&#10;&#9;&#9;c-0.1,4.2-1.2,8.1-3.2,11.8c-0.6,1.1-1.4,2.1-2,3.1C62.3,56,62.2,56.1,62.2,56.4C62.1,56.3,62.1,56.3,62.2,56.4z" id="el_l6EdVraDIH"/>
	<path d="M14.9,30.5c-0.4,0.3-0.7,0.6-1.1,0.9c-0.5,0.4-0.9,0.4-1.2,0c-0.3-0.4-0.2-0.8,0.3-1.2c1.3-1.1,2.6-2.2,3.9-3.3&#10;&#9;&#9;c0.3-0.2,0.6-0.4,1-0.2c0.4,0.2,0.4,0.5,0.4,0.9c-0.1,1.7-0.1,3.4-0.2,5.2c0,0.6-0.3,0.9-0.8,0.9c-0.5,0-0.7-0.4-0.7-1&#10;&#9;&#9;c0-0.5,0-1-0.1-1.5c-0.3,0.6-0.5,1.2-0.8,1.8c-1.5,4-2,8-1.4,12.2c1.3,8.3,5.6,14.6,13.1,18.5c6.1,3.2,12.5,3.6,19.1,1.6&#10;&#9;&#9;c0.7-0.2,1.4-0.5,2.2-0.8c0.6-0.2,1-0.1,1.1,0.3c0.2,0.4,0,0.8-0.6,1.1c-4.5,1.9-9.2,2.6-14.1,1.9c-7.8-1.2-13.9-5.1-18.3-11.6&#10;&#9;&#9;c-1.9-2.8-3.1-6-3.8-9.4c-0.8-4.2-0.6-8.2,0.5-12.3c0.3-1.1,0.8-2.1,1.2-3.2c0.1-0.3,0.2-0.5,0.3-0.7C15,30.5,14.9,30.5,14.9,30.5z&#10;&#9;&#9;" id="el_2JqfiAhy_R"/>
</g></g>
<script>(function(){var a=document.querySelector('#el_NRYUzZBII'),b=a.querySelectorAll('style'),c=function(d){b.forEach(function(f){var g=f.textContent;g&amp;&amp;(f.textContent=g.replace(/transform-box:[^;\r\n]*/gi,'transform-box: '+d))})};c('initial'),window.requestAnimationFrame(function(){return c('fill-box')})})();</script></svg>