<?xml version="1.0" encoding="utf-8"?>
<svg version="1.1" xmlns="http://www.w3.org/2000/svg" xmlns:xlink="http://www.w3.org/1999/xlink" x="0px" y="0px" viewBox="0 0 80 80" style="enable-background:new 0 0 80 80;" xml:space="preserve" id="el_9xVg-Pm-E"><style type="text/css">@-webkit-keyframes el_-Tjujb9eXJ_W0g2rCED8_Animation {
    0% {
        -webkit-transform: rotate(360deg);
                transform: rotate(360deg)
    }
    100% {
        -webkit-transform: rotate(360deg);
                transform: rotate(360deg)
    }
}
@keyframes el_-Tjujb9eXJ_W0g2rCED8_Animation {
    0% {
        -webkit-transform: rotate(360deg);
                transform: rotate(360deg)
    }
    100% {
        -webkit-transform: rotate(360deg);
                transform: rotate(360deg)
    }
}
@-webkit-keyframes el_Nn5bBPVEAS_DUVY07W6z_Animation {
    0% {
        -webkit-transform: scale(1, 1);
                transform: scale(1, 1)
    }
    47.78% {
        -webkit-transform: scale(1.2, 1.2);
                transform: scale(1.2, 1.2)
    }
    100% {
        -webkit-transform: scale(1, 1);
                transform: scale(1, 1)
    }
}
@keyframes el_Nn5bBPVEAS_DUVY07W6z_Animation {
    0% {
        -webkit-transform: scale(1, 1);
                transform: scale(1, 1)
    }
    47.78% {
        -webkit-transform: scale(1.2, 1.2);
                transform: scale(1.2, 1.2)
    }
    100% {
        -webkit-transform: scale(1, 1);
                transform: scale(1, 1)
    }
}
#el_9xVg-Pm-E * {
    -webkit-animation-duration: 3s;
            animation-duration: 3s;
    -webkit-animation-iteration-count: infinite;
            animation-iteration-count: infinite;
    -webkit-animation-timing-function: cubic-bezier(0, 0, 1, 1);
            animation-timing-function: cubic-bezier(0, 0, 1, 1)
}
#el_Nn5bBPVEAS_DUVY07W6z {
    -webkit-animation-name: el_Nn5bBPVEAS_DUVY07W6z_Animation;
            animation-name: el_Nn5bBPVEAS_DUVY07W6z_Animation;
    -webkit-transform-origin: 50% 50%;
            transform-origin: 50% 50%;
    transform-box: fill-box
}
#el_-Tjujb9eXJ_W0g2rCED8 {
    -webkit-animation-name: el_-Tjujb9eXJ_W0g2rCED8_Animation;
            animation-name: el_-Tjujb9eXJ_W0g2rCED8_Animation;
    -webkit-transform-origin: 50% 50%;
            transform-origin: 50% 50%;
    transform-box: fill-box
}</style><style/>
<g id="el_Nn5bBPVEAS_DUVY07W6z" data-animator-group="true" data-animator-type="2"><g id="el_Nn5bBPVEAS">
	<path d="M51.4,24.7c0.4-0.4,0.8-0.8,1.2-1.2c0.1-0.1,0.1-0.3,0-0.4c-0.5-1.1-0.4-2.2,0.3-3.2c0.8-1,1.8-1.4,3.1-1.2&#10;&#9;&#9;c1.1,0.2,1.9,0.9,2.3,1.9c0.1,0.3,0.3,0.4,0.6,0.4c1.3,0,2.5,0,3.8,0c0.2,0,0.3,0,0.5,0c0,0.5,0,1,0,1.6c-0.2,0-0.3,0-0.5,0&#10;&#9;&#9;c-1.3,0-2.6,0-3.9,0c-0.2,0-0.4,0.1-0.5,0.3c-0.7,1.7-2.5,2.5-4.2,1.7c-0.3-0.1-0.4-0.1-0.6,0.1c-0.3,0.4-0.7,0.7-1.1,1.1&#10;&#9;&#9;c-0.2,0.2-0.2,0.3-0.1,0.5c2,3.1,2.9,6.5,3,10.2c0,3.7-0.9,7.1-2.9,10.3c-0.2,0.4-0.2,0.6,0.1,0.9c3.1,3.1,6.2,6.2,9.3,9.3&#10;&#9;&#9;c1.6,1.6,1.8,3.7,0.6,5.4c-1.4,1.9-4.2,2.3-5.9,0.8c-1.3-1.2-2.6-2.5-3.9-3.8c-2-2-3.9-3.9-5.9-5.9c-0.2-0.2-0.4-0.3-0.7-0.1&#10;&#9;&#9;c-4,2.5-8.4,3.4-13.1,2.7c-8.6-1.2-15.3-8-16.5-16.5c-1.3-9,3.8-17.8,12.3-21.1c7.4-2.9,16.1-0.9,21.5,5&#10;&#9;&#9;C50.6,23.8,51,24.2,51.4,24.7z M53.9,36.7c0-10-8-18.1-18-18.1c-10-0.1-18,8-18.1,18c-0.1,9.8,8,18.2,18.3,18.1&#10;&#9;&#9;C45.8,54.5,53.8,46.7,53.9,36.7z M54.7,51.9c-1.2,1.2-2.3,2.4-3.5,3.6c0.1,0.1,0.2,0.2,0.3,0.3c1.7,1.7,3.3,3.3,5,5&#10;&#9;&#9;c0.4,0.4,0.7,0.8,1.1,1.1c1,0.9,2.5,0.8,3.4-0.2c0.9-1,1-2.5,0.1-3.5C59,56.1,56.8,54,54.7,51.9z M51.4,48.7&#10;&#9;&#9;c-1.2,1.2-2.3,2.3-3.5,3.5c0.7,0.7,1.4,1.4,2,2c1.2-1.2,2.3-2.4,3.5-3.5C52.8,50,52.1,49.3,51.4,48.7z M55.5,23.3&#10;&#9;&#9;c0.8,0,1.6-0.7,1.6-1.5c0-0.8-0.7-1.6-1.6-1.6c-0.8,0-1.5,0.7-1.5,1.6C53.9,22.6,54.6,23.3,55.5,23.3z" id="el_9ayPqGDSWN"/>
</g></g>
<g id="el_-Tjujb9eXJ_W0g2rCED8" data-animator-group="true" data-animator-type="1"><g id="el_-Tjujb9eXJ">
	<path d="M52.3,36.7c-0.1,9.2-7.6,16.4-16.5,16.3c-9.4-0.1-16.6-7.6-16.4-17.1c0.3-8.6,7.4-15.8,16.6-15.7&#10;&#9;&#9;C44.8,20.2,52.2,27.3,52.3,36.7z M21,35c-0.7,6.3,2.7,12.7,9.1,15.3c6.7,2.7,14,0.4,17.9-5.2c3.9-5.5,3.1-12.1,0.7-15.7&#10;&#9;&#9;c-0.5,0.5-0.9,1-1.4,1.4c-0.2,0.2-0.2,0.3-0.1,0.5c0.5,1.2,0.3,2.6-0.6,3.5c-0.9,0.9-2.3,1.2-3.5,0.6c-0.2-0.1-0.4-0.1-0.5,0.1&#10;&#9;&#9;c-1.5,1.6-3.1,3.1-4.7,4.6c-0.2,0.2-0.2,0.3-0.1,0.6c0.1,0.4,0.3,0.8,0.3,1.1c0.1,1.3-0.7,2.5-1.8,3c-1.2,0.5-2.6,0.3-3.5-0.6&#10;&#9;&#9;c-0.9-0.9-1.1-2.3-0.6-3.4c0.1-0.2,0.2-0.4-0.1-0.6c-1.1-1-2.1-2.1-3.1-3.1c-0.1-0.1-0.3-0.1-0.5-0.1c-1.8,0.7-3.5,0.1-4.3-1.8&#10;&#9;&#9;c0-0.1-0.2-0.3-0.3-0.3C23,35,22,35,21,35z M47.9,28.1c-2.7-4.2-8.5-7.4-15-6.1c-6.5,1.3-10.8,6.5-11.6,11.4c1,0,1.9,0,2.9,0&#10;&#9;&#9;c0-0.1,0-0.1,0.1-0.2c0.7-1.7,2.5-2.6,4.1-1.9C30,32,30.8,34,30,35.6c-0.1,0.1,0,0.3,0.1,0.4c1,1.1,2.1,2.1,3.2,3.1&#10;&#9;&#9;c0.1,0.1,0.3,0.1,0.5,0.1c0.9-0.4,1.8-0.4,2.7,0c0.1,0.1,0.3,0,0.4-0.1c1.6-1.6,3.2-3.1,4.7-4.7c0.1-0.1,0.1-0.3,0.1-0.4&#10;&#9;&#9;c-0.6-1.4-0.4-2.6,0.6-3.6c0.9-0.9,2.2-1.1,3.6-0.6c0.1,0,0.3,0,0.4,0C46.8,29.3,47.3,28.7,47.9,28.1z M27.2,32.7&#10;&#9;&#9;c-0.9,0-1.5,0.7-1.5,1.5c0,0.9,0.7,1.6,1.6,1.6c0.8,0,1.6-0.7,1.6-1.6C28.8,33.4,28,32.7,27.2,32.7z M33.5,42.1&#10;&#9;&#9;c0,0.9,0.7,1.6,1.6,1.6c0.8,0,1.6-0.7,1.6-1.5c0-0.9-0.7-1.6-1.6-1.6C34.2,40.5,33.5,41.2,33.5,42.1z M44.4,31.1&#10;&#9;&#9;c-0.8,0-1.6,0.7-1.6,1.5c0,0.9,0.7,1.6,1.6,1.6c0.8,0,1.5-0.7,1.5-1.6C46,31.8,45.3,31.1,44.4,31.1z" id="el_4qJtTEXmD2"/>
</g></g>
<script>(function(){var a=document.querySelector('#el_9xVg-Pm-E'),b=a.querySelectorAll('style'),c=function(d){b.forEach(function(f){var g=f.textContent;g&amp;&amp;(f.textContent=g.replace(/transform-box:[^;\r\n]*/gi,'transform-box: '+d))})};c('initial'),window.requestAnimationFrame(function(){return c('fill-box')})})();</script></svg>