<?xml version="1.0" encoding="utf-8"?>
<svg version="1.1" xmlns="http://www.w3.org/2000/svg" xmlns:xlink="http://www.w3.org/1999/xlink" x="0px" y="0px" viewBox="0 0 80 80" style="enable-background:new 0 0 80 80;" xml:space="preserve" id="el_AAlNOdlr2"><style type="text/css">@-webkit-keyframes el_aPoTx5ko1N_6RIl9TDdf_Animation {
    0% {
        -webkit-transform: scale(1, 1);
                transform: scale(1, 1)
    }
    48.89% {
        -webkit-transform: scale(1.1, 1.1);
                transform: scale(1.1, 1.1)
    }
    100% {
        -webkit-transform: scale(1, 1);
                transform: scale(1, 1)
    }
}
@keyframes el_aPoTx5ko1N_6RIl9TDdf_Animation {
    0% {
        -webkit-transform: scale(1, 1);
                transform: scale(1, 1)
    }
    48.89% {
        -webkit-transform: scale(1.1, 1.1);
                transform: scale(1.1, 1.1)
    }
    100% {
        -webkit-transform: scale(1, 1);
                transform: scale(1, 1)
    }
}
@-webkit-keyframes el_dSMdgRIoKr_g0PISGAd1_Animation {
    0% {
        -webkit-transform: scale(0, 0);
                transform: scale(0, 0)
    }
    23.33% {
        -webkit-transform: scale(1.2, 1.2);
                transform: scale(1.2, 1.2)
    }
    25.56% {
        -webkit-transform: scale(1, 1);
                transform: scale(1, 1)
    }
    100% {
        -webkit-transform: scale(1, 1);
                transform: scale(1, 1)
    }
}
@keyframes el_dSMdgRIoKr_g0PISGAd1_Animation {
    0% {
        -webkit-transform: scale(0, 0);
                transform: scale(0, 0)
    }
    23.33% {
        -webkit-transform: scale(1.2, 1.2);
                transform: scale(1.2, 1.2)
    }
    25.56% {
        -webkit-transform: scale(1, 1);
                transform: scale(1, 1)
    }
    100% {
        -webkit-transform: scale(1, 1);
                transform: scale(1, 1)
    }
}
#el_AAlNOdlr2 * {
    -webkit-animation-duration: 3s;
            animation-duration: 3s;
    -webkit-animation-iteration-count: infinite;
            animation-iteration-count: infinite;
    -webkit-animation-timing-function: cubic-bezier(0, 0, 1, 1);
            animation-timing-function: cubic-bezier(0, 0, 1, 1)
}
#el_dSMdgRIoKr_g0PISGAd1 {
    -webkit-animation-name: el_dSMdgRIoKr_g0PISGAd1_Animation;
            animation-name: el_dSMdgRIoKr_g0PISGAd1_Animation;
    -webkit-transform-origin: 50% 50%;
            transform-origin: 50% 50%;
    transform-box: fill-box
}
#el_aPoTx5ko1N_6RIl9TDdf {
    -webkit-animation-name: el_aPoTx5ko1N_6RIl9TDdf_Animation;
            animation-name: el_aPoTx5ko1N_6RIl9TDdf_Animation;
    -webkit-transform-origin: 50% 50%;
            transform-origin: 50% 50%;
    transform-box: fill-box
}</style><style/>
<g id="el_aPoTx5ko1N_6RIl9TDdf" data-animator-group="true" data-animator-type="2"><g id="el_aPoTx5ko1N">
	<g id="el_zamqmcjWZz">
		<path d="M26.7,59.6c-0.6-0.4-0.6-0.4-1.2,0.1c-0.8,0.8-1.8,1.3-3,1.1c-0.8-0.2-1.4-0.7-2-1.3c-0.2-0.2-0.4-0.3-0.7-0.1&#10;&#9;&#9;&#9;c-0.6,0.4-1.3,0.7-2,1c-0.6,0.3-0.9,0.8-0.9,1.5c0,1.7,0,3.4,0,5.1c0,0.7-0.5,1.1-1,0.8c-0.2-0.1-0.4-0.4-0.4-0.7&#10;&#9;&#9;&#9;c0-1.8,0-3.6,0-5.4c0-1.1,0.6-2,1.5-2.5c0.6-0.4,1.3-0.7,1.9-1c-0.7-0.6-1.5-1.2-2.2-1.8c-0.4-0.4-0.5-0.9-0.3-1.5&#10;&#9;&#9;&#9;c0.3-1,0.4-2.1,0.5-3.1c0.1-1.2,0.1-2.4,0.3-3.6c0.9-4.2,5.6-6.2,9.1-3.9c1.7,1.1,2.7,2.8,2.9,4.9c0.1,1.5,0.2,2.9,0.3,4.4&#10;&#9;&#9;&#9;c0,0.5,0.2,1.1,0.4,1.6c0.1,0.4,0.1,0.8-0.2,1.1c-0.7,0.8-1.5,1.4-2.5,1.9c0.3,0.3,0.6,0.3,1.1,0.1c1.3-0.5,2.6-1,3.9-1.5&#10;&#9;&#9;&#9;c0.5-0.2,0.9-0.3,1.2-0.9c0.2-0.5,0.7-0.8,1.1-1.2c0.1-0.2,0.2-0.4,0.3-0.6c0.1-1.2-0.1-2.2-1.1-3.2c-1.4-1.5-2-3.4-2-5.5&#10;&#9;&#9;&#9;c0-0.9-0.1-1.8-0.4-2.7c-0.6-2-0.6-4-0.1-6c0.8-2.9,3.5-4.8,6.6-4.9c3.5,0,7,0,10.5,0c0.7,0,0.9,0.3,0.9,0.9c0,2.6,0.1,5.1,0,7.7&#10;&#9;&#9;&#9;c0,1-0.4,1.9-0.5,2.8c-0.1,0.3-0.2,0.7-0.2,1c-0.1,1.2-0.1,2.4-0.3,3.5c-0.3,1.6-1.3,2.9-2.5,4.1c-0.1,0.1-0.2,0.4-0.3,0.6&#10;&#9;&#9;&#9;c0,0,0,0.1,0,0.1c-0.2,1.3,0.1,2.4,1.2,3.1c0.1,0,0.1,0.1,0.1,0.1c0.2,0.7,0.8,0.7,1.3,0.9c0.9,0.3,1.7,0.7,2.6,0.9&#10;&#9;&#9;&#9;c0.3,0.1,0.6,0.1,1,0c0.2,0,0.5-0.1,0.7-0.2c0.9-0.3,1-0.4,0.9-1.3c0-0.1-0.1-0.3-0.2-0.3c-1.4-1.2-2.1-2.7-2.1-4.5&#10;&#9;&#9;&#9;c0-0.6-0.1-1.2-0.4-1.7c-1.3-2.7,0.6-5.9,3.5-6.3c0.4,0,0.7-0.1,1.1-0.1c2.1,0,4.1,0,6.2,0c0.8,0,1,0.3,1,1c0,1.4,0,2.8-0.1,4.2&#10;&#9;&#9;&#9;c0,0.4-0.1,0.7-0.3,1c-0.3,0.6-0.4,1.2-0.4,1.8c0.1,1.9-0.6,3.4-2.1,4.6c-0.4,0.3-0.2,0.7-0.2,1.1c0,0.1,0.3,0.3,0.5,0.4&#10;&#9;&#9;&#9;c0.9,0.3,1.8,0.5,2.7,0.8c1.3,0.4,2.2,1.5,2.2,2.8c0,2,0,4,0,6c0,0.5-0.3,0.8-0.7,0.8c-0.4,0-0.7-0.3-0.7-0.8c0-0.1,0-0.2,0-0.3&#10;&#9;&#9;&#9;c0-1.8,0-3.5,0-5.3c0-1-0.4-1.5-1.4-1.8c-0.9-0.3-1.8-0.5-2.8-0.8c-0.2,0-0.4,0.1-0.5,0.1c0,0,0,0-0.1,0.1&#10;&#9;&#9;&#9;c-0.5,0.5-1.2,0.9-1.4,1.5c-0.3,0.6-0.1,1.4-0.1,2.1c0,1.5,0,2.9,0,4.4c0,0.5-0.3,0.8-0.7,0.8c-0.4,0-0.7-0.3-0.7-0.8&#10;&#9;&#9;&#9;c0-0.1,0-0.2,0-0.3c0-1.9,0-3.8,0-5.7c0-0.3-0.1-0.5-0.3-0.8c-0.3-0.3-0.7-0.6-1-1c-0.4-0.5-0.8-0.6-1.4-0.2c1,1,1.1,2.3,1,3.6&#10;&#9;&#9;&#9;c0,1.4,0,2.9,0,4.3c0,0.3-0.1,0.6-0.3,0.8c-0.1,0.1-0.5,0.1-0.7,0c-0.2-0.1-0.4-0.4-0.4-0.7c0-1.2,0-2.4,0-3.6c0-0.6,0-1.3,0-1.9&#10;&#9;&#9;&#9;c0-1-0.5-1.7-1.4-2.1c-1.6-0.6-3.2-1.2-4.8-1.8c-0.6,0.9-1.2,1.7-1.7,2.6c-0.7,1.2-2,1.2-2.7,0.3c-0.2-0.3-0.5-0.6-0.9-1&#10;&#9;&#9;&#9;c0,0.3,0,0.5,0,0.6c0,2.2,0,4.4,0,6.6c0,0.1,0,0.3,0,0.4c-0.1,0.4-0.3,0.6-0.7,0.6c-0.4,0-0.6-0.2-0.7-0.6c0-0.2,0-0.4,0-0.6&#10;&#9;&#9;&#9;c0-2.1,0-4.2,0-6.4c0-0.2,0-0.3,0-0.5c0,0-0.1,0-0.1-0.1c-0.3,0.3-0.6,0.7-0.9,1c-0.8,0.8-1.8,0.7-2.5-0.3&#10;&#9;&#9;&#9;c-0.6-0.9-1.2-1.8-1.9-2.8c-1.7,0.6-3.3,1.2-4.9,1.8c-0.9,0.4-1.3,1.3-1.3,2.3c0,1.7,0,3.4,0,5.1c0,0.2,0,0.5-0.1,0.6&#10;&#9;&#9;&#9;c-0.2,0.2-0.5,0.3-0.8,0.3c-0.4-0.1-0.5-0.4-0.5-0.8c0-1.8,0-3.5,0-5.3c0-0.1,0-0.1,0-0.2C26.4,60.9,26.5,60.3,26.7,59.6z&#10;&#9;&#9;&#9; M47.7,33.4c-0.1,0-0.1,0-0.2,0c-3.4,0-6.7-0.1-10.1,0c-2.3,0.1-3.9,1.3-4.8,3.4c-0.5,1.2-0.4,2.6-0.3,3.9c0,0.7,0.3,1.4,0.4,2.1&#10;&#9;&#9;&#9;c0.1,0.6,0.3,1.1,0.3,1.7c0,1.2,0,2.4,0.5,3.5c0.9,2.6,3.4,4.5,6.2,4.6c3,0.1,5.2-1.2,6.6-3.8c0.7-1.2,0.8-2.5,0.7-3.9&#10;&#9;&#9;&#9;c0-0.8,0-1.6,0.4-2.3c0.2-0.3,0.3-0.7,0.3-1C47.6,38.8,47.7,36.1,47.7,33.4z M60.8,44.8c-0.2,0-0.4,0-0.5,0c-1.8,0-3.5,0-5.3,0&#10;&#9;&#9;&#9;c-0.3,0-0.7,0-1,0.1c-1.9,0.3-3.1,2.5-2.3,4.1c0.4,0.8,0.6,1.6,0.5,2.4c0,0.2,0,0.4,0,0.6c0.1,1.9,1.7,3.5,3.7,3.7&#10;&#9;&#9;&#9;c1.7,0.2,3.5-1.1,3.9-2.9c0.1-0.6,0.1-1.3,0.1-1.9c0-0.5,0.1-1,0.3-1.5c0.2-0.4,0.4-0.9,0.4-1.3C60.8,47,60.8,46,60.8,44.8z&#10;&#9;&#9;&#9; M27.8,50.9c0-0.6-0.1-1.1-0.1-1.7c0-0.3-0.1-0.6-0.2-0.8c-0.6-1.9-2.1-3.2-3.9-3.4c-1.8-0.2-3.6,0.7-4.5,2.4&#10;&#9;&#9;&#9;c-0.7,1.2-0.7,2.5-0.7,3.8c0.7,0,0.8,0.5,0.8,1.1c0.1,1.8,1.6,3.3,3.4,3.5c1.8,0.2,3.5-0.8,4.2-2.5c0.2-0.5,0.1-0.9-0.2-1.3&#10;&#9;&#9;&#9;c-1-1.4-2.5-2-4.1-2.3c-0.4-0.1-0.8,0.1-1,0.4c-0.2,0.2-0.3,0.4-0.5,0.6c-0.4,0.4-0.8,0.4-1.1,0.1c-0.3-0.3-0.3-0.7,0.1-1.1&#10;&#9;&#9;&#9;c0.3-0.3,0.6-0.6,0.9-1c0.3-0.4,0.7-0.5,1.2-0.4C24.3,48.2,26.3,49,27.8,50.9z M40,57.1c1.2-0.8,2.5-1.7,3.7-2.5&#10;&#9;&#9;&#9;c0.1-0.1,0.2-0.2,0.2-0.3c0-0.4,0-0.7,0-1.1c-2.6,1.2-5.2,1.2-7.8,0c0,0.4,0,0.8,0,1.1c0,0.1,0.1,0.3,0.2,0.4&#10;&#9;&#9;&#9;C37.5,55.4,38.8,56.3,40,57.1z M41.2,58c0.6,0.6,1.2,1.2,1.8,1.8c0.6-0.8,1.1-1.7,1.7-2.5c0.5-0.8,0.5-0.8-0.1-1.4&#10;&#9;&#9;&#9;c0,0-0.1,0-0.1,0C43.4,56.5,42.3,57.3,41.2,58z M34.7,56.5c0.8,1.2,1.5,2.3,2.2,3.4c0.6-0.6,1.2-1.2,1.8-1.8&#10;&#9;&#9;&#9;c-1.1-0.7-2.2-1.5-3.2-2.2C35.3,56.1,35,56.3,34.7,56.5z M21.5,57.1c-0.1,0.8-0.3,1.7,0.8,2.2c0.6,0.3,1.2,0.3,1.7-0.1&#10;&#9;&#9;&#9;c0.8-0.6,0.9-0.9,0.6-2.1C23.6,57.1,22.6,57.1,21.5,57.1z M56.1,59.3c0.5-0.5,0.9-0.9,1.3-1.3c0.3-0.3,0.4-0.6,0.3-0.9&#10;&#9;&#9;&#9;c-1,0-2.1,0-3.2,0c0,0.2,0,0.5,0.1,0.7C55.1,58.3,55.6,58.8,56.1,59.3z M18.1,54.2c-0.1,0.3-0.2,0.8-0.3,1.2c0,0.1,0,0.2,0,0.3&#10;&#9;&#9;&#9;c0.6,0.6,1.3,1.1,2.3,1.4c-0.1-0.4-0.1-0.8-0.3-1C19.3,55.4,18.7,54.8,18.1,54.2z M26.2,57c0.8-0.3,1.6-0.7,2.1-1.3&#10;&#9;&#9;&#9;c0.1-0.1,0.1-0.2,0.1-0.3c-0.1-0.5-0.2-0.9-0.4-1.3c-0.5,0.6-0.9,1.2-1.5,1.7C26.1,56.2,26.1,56.5,26.2,57z" id="el_yTNwszYsHJ"/>
		<path d="M60,64.9c0-0.7,0-1.5,0-2.2c0-0.5,0.3-0.8,0.7-0.8c0.4,0,0.7,0.3,0.7,0.8c0,1.5,0,2.9,0,4.4c0,0.5-0.3,0.8-0.7,0.8&#10;&#9;&#9;&#9;c-0.4,0-0.7-0.3-0.7-0.9C60,66.3,60,65.6,60,64.9z" id="el_Aey4aoGfbR"/>
		<path d="M20,65.4c0,0.6,0,1.1,0,1.7c0,0.5-0.3,0.8-0.7,0.8c-0.4,0-0.7-0.3-0.7-0.8c0-1.2,0-2.3,0-3.5c0-0.5,0.3-0.8,0.7-0.8&#10;&#9;&#9;&#9;c0.4,0,0.7,0.3,0.7,0.8C20,64.2,20,64.8,20,65.4z" id="el_w1i2oH1h_O"/>
		<path d="M30.8,65.7c0-0.5,0-1,0-1.5c0-0.5,0.3-0.8,0.7-0.8c0.4,0,0.7,0.2,0.7,0.7c0,1,0,2,0,3.1c0,0.5-0.3,0.7-0.7,0.7&#10;&#9;&#9;&#9;c-0.4,0-0.7-0.3-0.7-0.8C30.8,66.6,30.8,66.1,30.8,65.7z" id="el_dKC4aM0n91"/>
		<path d="M49.2,65.7c0,0.5,0,0.9,0,1.4c0,0.5-0.3,0.8-0.7,0.8c-0.4,0-0.7-0.3-0.7-0.8c0-1,0-1.9,0-2.9c0-0.5,0.3-0.8,0.7-0.8&#10;&#9;&#9;&#9;c0.4,0,0.7,0.3,0.7,0.8C49.2,64.7,49.2,65.2,49.2,65.7z" id="el_B78-utExN1"/>
		<path d="M35.3,40.1c0,0.6,0,1.1,0,1.6c0,0.5-0.3,0.8-0.7,0.8c-0.4,0-0.7-0.3-0.7-0.8c0-0.5,0-1,0-1.5c0-0.8,0.5-1.3,1.3-1.4&#10;&#9;&#9;&#9;c2.5-0.4,5.1-0.5,7.6,0.2c1.1,0.3,2.1,0.7,2.9,1.5c0.4,0.4,0.5,0.8,0.2,1.1c-0.3,0.3-0.7,0.3-1.1,0c-1.1-0.9-2.5-1.3-3.9-1.5&#10;&#9;&#9;&#9;C39.1,39.7,37.2,39.9,35.3,40.1z" id="el_oEPXs9Sc2V"/>
		<path d="M54.6,47.2c1.2,0.2,2.4,0.5,3.6,0.7c0.2,0,0.3,0.1,0.4,0.2c0.4,0.2,0.6,0.6,0.4,0.9c-0.2,0.4-0.5,0.5-1,0.4&#10;&#9;&#9;&#9;c-0.4-0.1-0.8-0.3-1.2-0.4c-1-0.1-2-0.2-2.9-0.3c-0.3,0-0.6-0.1-0.7-0.3c-0.4-0.4-0.1-1,0.4-1.1c0.3,0,0.6,0,0.9,0&#10;&#9;&#9;&#9;C54.5,47.3,54.5,47.2,54.6,47.2z" id="el_89HApyD68V"/>
	</g>
</g></g>
<g id="el_dSMdgRIoKr_g0PISGAd1" data-animator-group="true" data-animator-type="2"><g id="el_dSMdgRIoKr">
	<g id="el_Whqu2i_9Ey">
		<path d="M52.2,27.7c-0.3,0-0.5,0-0.8,0c-0.4,0-0.7-0.3-0.7-0.7c0-0.4,0.3-0.7,0.7-0.7c0.4,0,0.9,0,1.3,0c0.5,0,0.8,0.3,0.8,0.8&#10;&#9;&#9;&#9;c0,0.1,0,0.2,0,0.4c0.2-0.2,0.5-0.3,0.6-0.5c0.6-0.6,1.4-0.8,2.3-0.8c1.3,0.1,2.6,0,3.8,0c1.3,0,2.1-0.8,2.1-2.2&#10;&#9;&#9;&#9;c0-2.9,0-5.8,0-8.6c0-1.4-0.8-2.2-2.2-2.2c-9.1,0-18.1,0-27.2,0c-1.3,0-2.2,1-2.2,2.2c0.1,2.8,0,5.7,0,8.5c0,1.3,0.9,2.3,2.2,2.3&#10;&#9;&#9;&#9;c2.1,0,4.2,0,6.4,0c0.1,0,0.2,0,0.3,0c0.3,0,0.6,0.3,0.6,0.7c0,0.3-0.2,0.6-0.6,0.7c-0.1,0-0.2,0-0.3,0c-2.2,0-4.3,0-6.5,0&#10;&#9;&#9;&#9;c-2.1,0-3.5-1.4-3.5-3.5c0-2.9,0-5.8,0-8.7c0-2,1.4-3.4,3.4-3.4c9.1,0,18.3,0,27.4,0c1.9,0,3.4,1.4,3.4,3.3c0,3,0,6.1,0,9.1&#10;&#9;&#9;&#9;c0,1.8-1.5,3.2-3.3,3.2c-1.5,0-3,0-4.6,0c-0.2,0-0.4,0.1-0.5,0.2c-0.7,0.5-1.3,1-2,1.4c-0.3,0.2-0.5,0.3-0.8,0.2&#10;&#9;&#9;&#9;c-0.3-0.2-0.4-0.4-0.4-0.8C52.2,28.4,52.2,28.1,52.2,27.7z" id="el_tAlZJxXkxW"/>
		<path d="M47.2,17c-3.7,0-7.5,0-11.2,0c-0.2,0-0.4,0-0.6,0c-0.7,0-1.2-0.3-1.2-0.7c0-0.4,0.5-0.6,1.2-0.7c0.2,0,0.3,0,0.5,0&#10;&#9;&#9;&#9;c7.5,0,14.9,0,22.4,0c0.2,0,0.3,0,0.5,0c0.7,0,1.3,0.3,1.3,0.7c0,0.4-0.6,0.6-1.3,0.7c-1,0-2,0-3,0C53,17,50.1,17,47.2,17z" id="el_g1DQDvvn0Z"/>
		<path d="M40.1,22c1.5,0,3,0,4.4,0c0.2,0,0.4,0,0.5,0.1c0.2,0.1,0.3,0.4,0.3,0.7c-0.1,0.3-0.3,0.5-0.5,0.5c-0.1,0-0.2,0-0.3,0&#10;&#9;&#9;&#9;c-3,0-6,0-8.9,0c-0.5,0-0.7-0.2-0.8-0.5C34.7,22.3,35,22,35.5,22c1.1,0,2.1,0,3.2,0C39.1,22,39.6,22,40.1,22z" id="el_SrGCkPcUpd"/>
		<path d="M44.3,18.9c2.8,0,5.6,0,8.3,0c0.6,0,1.1,0.1,1.3,0.4c0.2,0.3,0.1,0.5-0.4,0.7c-0.3,0.1-0.6,0.2-0.9,0.2&#10;&#9;&#9;&#9;c-5.6,0-11.3,0-16.9,0c-0.8,0-1.3-0.3-1.3-0.7c0-0.4,0.5-0.7,1.3-0.7C38.6,18.9,41.4,18.9,44.3,18.9z" id="el_rSWeo2JjHK"/>
		<path d="M49.5,22.8c0,0.4-0.3,0.7-0.6,0.7c-0.4,0-0.7-0.3-0.7-0.7c0-0.4,0.3-0.7,0.7-0.7C49.1,22.2,49.4,22.5,49.5,22.8z" id="el_LHe_appVoA_"/>
	</g>
</g></g>
<script>(function(){var a=document.querySelector('#el_AAlNOdlr2'),b=a.querySelectorAll('style'),c=function(d){b.forEach(function(f){var g=f.textContent;g&amp;&amp;(f.textContent=g.replace(/transform-box:[^;\r\n]*/gi,'transform-box: '+d))})};c('initial'),window.requestAnimationFrame(function(){return c('fill-box')})})();</script></svg>