<?xml version="1.0" encoding="utf-8"?>
<svg version="1.1" id="el_eQ6iXNOOh" xmlns="http://www.w3.org/2000/svg" xmlns:xlink="http://www.w3.org/1999/xlink" x="0px" y="0px" viewBox="0 0 80 80" style="enable-background:new 0 0 80 80;" xml:space="preserve"><style type="text/css">@-webkit-keyframes el_-DsGM5Pqsz_SSk1i7YCR_Animation {
    0% {
        -webkit-transform: translate(0px, 0px);
                transform: translate(0px, 0px)
    }
    50% {
        -webkit-transform: translate(0px, 3px);
                transform: translate(0px, 3px)
    }
    100% {
        -webkit-transform: translate(0px, 0px);
                transform: translate(0px, 0px)
    }
}
@keyframes el_-DsGM5Pqsz_SSk1i7YCR_Animation {
    0% {
        -webkit-transform: translate(0px, 0px);
                transform: translate(0px, 0px)
    }
    50% {
        -webkit-transform: translate(0px, 3px);
                transform: translate(0px, 3px)
    }
    100% {
        -webkit-transform: translate(0px, 0px);
                transform: translate(0px, 0px)
    }
}
@-webkit-keyframes el_Vm3wW2UoDD_jlivC5R_w_Animation {
    0% {
        -webkit-transform: translate(0px, 0px);
                transform: translate(0px, 0px)
    }
    50% {
        -webkit-transform: translate(0px, -7px);
                transform: translate(0px, -7px)
    }
    100% {
        -webkit-transform: translate(0px, 0px);
                transform: translate(0px, 0px)
    }
}
@keyframes el_Vm3wW2UoDD_jlivC5R_w_Animation {
    0% {
        -webkit-transform: translate(0px, 0px);
                transform: translate(0px, 0px)
    }
    50% {
        -webkit-transform: translate(0px, -7px);
                transform: translate(0px, -7px)
    }
    100% {
        -webkit-transform: translate(0px, 0px);
                transform: translate(0px, 0px)
    }
}
#el_eQ6iXNOOh * {
    -webkit-animation-duration: 3s;
            animation-duration: 3s;
    -webkit-animation-iteration-count: infinite;
            animation-iteration-count: infinite;
    -webkit-animation-timing-function: cubic-bezier(0, 0, 1, 1);
            animation-timing-function: cubic-bezier(0, 0, 1, 1)
}
#el_Vm3wW2UoDD_jlivC5R_w {
    -webkit-animation-name: el_Vm3wW2UoDD_jlivC5R_w_Animation;
            animation-name: el_Vm3wW2UoDD_jlivC5R_w_Animation;
    -webkit-transform-origin: 50% 50%;
            transform-origin: 50% 50%;
    transform-box: fill-box
}
#el_-DsGM5Pqsz_oJknDh4rL {
    -webkit-transform-origin: 50% 50%;
            transform-origin: 50% 50%;
    transform-box: fill-box
}
#el_-DsGM5Pqsz_SSk1i7YCR {
    -webkit-animation-name: el_-DsGM5Pqsz_SSk1i7YCR_Animation;
            animation-name: el_-DsGM5Pqsz_SSk1i7YCR_Animation;
    -webkit-transform-origin: 50% 50%;
            transform-origin: 50% 50%;
    transform-box: fill-box
}</style><style/>
<g id="el_Vm3wW2UoDD_jlivC5R_w" data-animator-group="true" data-animator-type="0"><g id="el_Vm3wW2UoDD">
	<path d="M43.5,48.4c0.2,1.1,0.4,2.2,0.6,3.2c0.1,0.8-0.2,1.2-1,1.2c-2.3,0-4.6,0-6.9,0c-0.8,0-1.1-0.4-1-1.2&#10;&#9;&#9;c0.2-1.1,0.4-2.2,0.6-3.3c-1,0-1.9,0-2.8,0c-0.5,0-0.8,0.4-0.8,0.9c-0.2,1.3-0.4,2.6-0.6,3.9c0,0.1,0,0.1,0,0.2&#10;&#9;&#9;c-0.1,0.5-0.1,1.1-0.7,1.2c-0.6,0.2-0.9-0.3-1.3-0.6c-4.2-4.5-3.9-11.9,0.6-16.1c0.1-0.1,0.2-0.3,0.4-0.4c0.3-0.2,0.3-0.4,0.2-0.7&#10;&#9;&#9;c-2-7.2-0.8-13.8,3.6-19.8c1.3-1.7,2.8-3.2,4.5-4.4c0.6-0.4,0.9-0.4,1.5,0c6.1,4.7,9.1,10.9,9,18.6c0,1.9-0.4,3.7-0.9,5.5&#10;&#9;&#9;c-0.1,0.4-0.1,0.6,0.2,0.8c4.8,4.2,5.2,11.5,1,16.2c-0.1,0.2-0.3,0.4-0.4,0.4c-0.3,0.1-0.7,0.4-0.9,0.3c-0.3-0.1-0.6-0.5-0.6-0.8&#10;&#9;&#9;c-0.3-1.4-0.4-2.8-0.6-4.3c-0.1-0.9-0.4-1.2-1.3-1.2c-0.7,0-1.5,0-2.2,0C43.6,48.3,43.5,48.4,43.5,48.4z M39.7,22.2&#10;&#9;&#9;c-1.9,0-3.9,0-5.8,0c-0.4,0-0.5,0.1-0.7,0.4c-1.7,4.1-2.1,8.3-1,12.5c1,3.7,2.3,7.4,3.5,11.1c0,0.1,0.3,0.3,0.5,0.3&#10;&#9;&#9;c2.3,0,4.5,0,6.8,0c0.4,0,0.5-0.1,0.6-0.5c1-3.1,2-6.1,3-9.2c1.5-4.8,1.4-9.5-0.5-14.2c-0.1-0.4-0.3-0.5-0.7-0.5&#10;&#9;&#9;C43.5,22.2,41.6,22.2,39.7,22.2z M44.9,20.4c0-0.1,0-0.1,0-0.2C43.6,18,42,16.1,40,14.5c-0.2-0.2-0.4-0.1-0.6,0&#10;&#9;&#9;c-1.9,1.6-3.5,3.4-4.8,5.5c0,0.1-0.1,0.2-0.1,0.3C37.9,20.4,41.4,20.4,44.9,20.4z M31.5,39.2c-3.5,2.9-4,8.8-1.5,12.2&#10;&#9;&#9;c0,0,0.1,0,0.1-0.1c0.1-0.9,0.3-1.7,0.4-2.6c0.2-1.1,0.9-1.9,2.1-2.2c0.4-0.1,0.9-0.1,1.4-0.1C33.1,44,32.3,41.6,31.5,39.2z&#10;&#9;&#9; M49.2,51.5c2.9-4.2,1.5-10-1.5-12.3c-0.8,2.4-1.6,4.8-2.3,7.3c0.2,0,0.3,0,0.3,0c1.7-0.1,3.1,0.9,3.2,2.9&#10;&#9;&#9;C49,50.1,49.1,50.8,49.2,51.5z M37.7,48.3c-0.2,0.9-0.4,1.8-0.5,2.7c1.7,0,3.3,0,5,0c-0.2-0.9-0.4-1.8-0.5-2.7&#10;&#9;&#9;C40.3,48.3,39,48.3,37.7,48.3z" id="el_Q1fTfYHKxn"/>
	<path d="M39.6,24.9c3,0,5.4,2.4,5.4,5.4c0,2.9-2.4,5.3-5.4,5.3c-3.1,0-5.4-2.4-5.4-5.5C34.2,27.3,36.7,24.9,39.6,24.9z M36,30.3&#10;&#9;&#9;c0,2,1.6,3.6,3.6,3.6s3.6-1.6,3.6-3.6s-1.6-3.6-3.6-3.6C37.6,26.7,36,28.3,36,30.3z" id="el_0F5OyAMgiq"/>
	<path d="M38.8,38.5c0.6,0,1.2,0,1.7,0c0,0.6,0,1.1,0,1.7c-0.6,0-1.1,0-1.7,0C38.8,39.6,38.8,39.1,38.8,38.5z" id="el_5jx49cvRSB"/>
	<path d="M44.1,40.2c-0.6,0-1.1,0-1.7,0c0-0.6,0-1.2,0-1.7c0.6,0,1.1,0,1.7,0C44.1,39,44.1,39.6,44.1,40.2z" id="el_tGo3KouzMG"/>
	<path d="M35.2,40.2c0-0.6,0-1.1,0-1.7c0.6,0,1.1,0,1.7,0c0,0.6,0,1.1,0,1.7C36.3,40.2,35.8,40.2,35.2,40.2z" id="el_yA_Yhg2mLf"/>
</g></g>
<g id="el_-DsGM5Pqsz_SSk1i7YCR" data-animator-group="true" data-animator-type="0"><g id="el_-DsGM5Pqsz">
	<path d="M66.2,47.8c0-0.6,0-1.1,0-1.7c0.6,0,1.1,0,1.7,0c0,0.6,0,1.1,0,1.7C67.4,47.8,66.9,47.8,66.2,47.8z" id="el_F58N8Nm9XR"/>
	<path d="M14,49.5c0-0.6,0-1.1,0-1.7c0.6,0,1.1,0,1.7,0c0,0.6,0,1.1,0,1.7C15.2,49.5,14.6,49.5,14,49.5z" id="el_J-wBH1-vUY"/>
	<path d="M66.2,57.7c-0.6,0-1.1,0-1.7,0c0-0.6,0-1.2,0-1.7c0.6,0,1.1,0,1.7,0C66.2,56.5,66.2,57.1,66.2,57.7z" id="el__9Ry2M2Bpq"/>
	<path d="M28.8,64.6c0.6,0,1.1,0,1.7,0c0,0.6,0,1.1,0,1.7c-0.6,0-1.1,0-1.7,0C28.8,65.8,28.8,65.2,28.8,64.6z" id="el_5StFSimVmu"/>
	<path d="M36.1,59.8c0.6,0,1.1,0,1.7,0c0,0.6,0,1.1,0,1.7c-0.6,0-1.1,0-1.7,0C36.1,60.9,36.1,60.4,36.1,59.8z" id="el_6BVqSlsXSo"/>
	<path d="M43.4,57.3c0.6,0,1.1,0,1.7,0c0,0.6,0,1.1,0,1.7c-0.6,0-1.1,0-1.7,0C43.4,58.5,43.4,57.9,43.4,57.3z" id="el_io9-r1eS0v"/>
	<path d="M51.9,63.4c0.6,0,1.1,0,1.7,0c0,0.6,0,1.1,0,1.7c-0.6,0-1.1,0-1.7,0C51.9,64.6,51.9,64,51.9,63.4z" id="el_yTLz-nNJsJ"/>
	<path d="M22.7,68.3c0.6,0,1.1,0,1.7,0c0,0.6,0,1.1,0,1.7c-0.6,0-1.1,0-1.7,0C22.7,69.4,22.7,68.9,22.7,68.3z" id="el_05ALlWMONW"/>
	<path d="M16.6,61c0.6,0,1.1,0,1.7,0c0,0.6,0,1.1,0,1.7c-0.6,0-1.1,0-1.7,0C16.6,62.1,16.6,61.6,16.6,61z" id="el_esUE5rO5etO"/>
	<path d="M49.1,68.5c-0.6,0-1.2,0-1.7,0c0-0.6,0-1.1,0-1.7c0.6,0,1.1,0,1.7,0C49.1,67.3,49.1,67.9,49.1,68.5z" id="el_5TF1Ij_ZAtU"/>
	<path d="M57.3,52.3c0.6,0,1.1,0,1.7,0c0,0.6,0,1.1,0,1.7c-0.6,0-1.1,0-1.7,0C57.3,53.5,57.3,52.9,57.3,52.3z" id="el_WFyl20pkqoF"/>
</g></g>
<script>(function(){var a=document.querySelector('#el_eQ6iXNOOh'),b=a.querySelectorAll('style'),c=function(d){b.forEach(function(f){var g=f.textContent;g&amp;&amp;(f.textContent=g.replace(/transform-box:[^;\r\n]*/gi,'transform-box: '+d))})};c('initial'),window.requestAnimationFrame(function(){return c('fill-box')})})();</script></svg>