<?xml version="1.0" encoding="utf-8"?>
<svg xmlns="http://www.w3.org/2000/svg" viewBox="0 0 20 20"><defs><style>.a{fill:#fff;}</style></defs><title>digitalArtboard 1 copy 3</title><path class="a" d="M5.18,16.61H7.53a1.18,1.18,0,0,0,1.18-1.18V11.5a.39.39,0,0,1,.4-.39h1.41l-.12.11a.4.4,0,1,0,.56.56l.78-.79a.38.38,0,0,0,0-.55L11,9.65a.4.4,0,1,0-.56.56l.12.11H9.11A1.18,1.18,0,0,0,7.93,11.5v3.93a.39.39,0,0,1-.4.39H5.18a.4.4,0,1,0,0,.79Z"/><path class="a" d="M6,10.32A1.18,1.18,0,1,0,4.78,9.14,1.18,1.18,0,0,0,6,10.32ZM6,8.75a.39.39,0,1,1-.39.39A.39.39,0,0,1,6,8.75Z"/><path class="a" d="M4.9,14.14a.39.39,0,0,0,.55,0L6,13.63l.51.51A.4.4,0,0,0,7,13.58l-.51-.51L7,12.56A.39.39,0,0,0,7,12a.39.39,0,0,0-.56,0L6,12.52,5.45,12a.38.38,0,0,0-.55,0,.39.39,0,0,0,0,.55l.51.51-.51.51A.4.4,0,0,0,4.9,14.14Z"/><path class="a" d="M6.07,18.6h5v.22a6.93,6.93,0,0,0,.79-.17v-.44a.4.4,0,0,0-.4-.4H4.34A7.31,7.31,0,0,0,6.07,18.6Z"/><path class="a" d="M16.91,7a39.06,39.06,0,0,0-3.36-2.81L13.28,4A22.8,22.8,0,0,0,9.81,1.61,5.15,5.15,0,0,0,2.94,3.46,12.39,12.39,0,0,0,1,13L3.21,7.15a.39.39,0,0,1,.39-.39H13a.39.39,0,0,1,.39.39v11a12.5,12.5,0,0,0,1.91-.93l.19-.12a7.87,7.87,0,0,0,3.65-4.62C19.67,10.32,18.43,8.4,16.91,7Z"/><path class="a" d="M10.68,13.46a1.18,1.18,0,1,0,1.18,1.18A1.18,1.18,0,0,0,10.68,13.46Zm0,1.58a.4.4,0,1,1,.39-.4A.39.39,0,0,1,10.68,15Z"/></svg>