<?xml version="1.0" encoding="utf-8"?>
<svg xmlns="http://www.w3.org/2000/svg" viewBox="0 0 20 20"><defs><style>.a{fill:#fff;}</style></defs><title>digitalArtboard 1 copy 2</title><path class="a" d="M16.91,7a39.06,39.06,0,0,0-3.36-2.81L13.28,4A22.8,22.8,0,0,0,9.81,1.61,5.15,5.15,0,0,0,2.94,3.46c-2.18,3.29-3,7.7-1.3,11.34a8.15,8.15,0,0,0,.44.75.82.82,0,0,1,.78-.6h.68a.82.82,0,0,1,.82.82v2.05a6.7,6.7,0,0,0,1.1.56V13.91a.76.76,0,0,1,.77-.76H7a.76.76,0,0,1,.76.76v5a9.26,9.26,0,0,0,1,.07V11.88a.76.76,0,0,1,.76-.76h.8a.76.76,0,0,1,.76.76v6.93a11.2,11.2,0,0,0,1.11-.27V9.7h-.41a.53.53,0,0,1-.51-.26A.46.46,0,0,1,11.43,9L12.92,7a.61.61,0,0,1,1,0L15.41,9a.46.46,0,0,1,.09.49A.54.54,0,0,1,15,9.7h-.4v7.94l.76-.42.19-.12a7.87,7.87,0,0,0,3.65-4.62C19.67,10.32,18.43,8.4,16.91,7Z"/></svg>