<?xml version="1.0" encoding="utf-8"?>
<svg xmlns="http://www.w3.org/2000/svg" viewBox="0 0 20 20"><defs><style>.a{fill:#fff;}</style></defs><title>digitalArtboard 1</title><rect class="a" x="6.23" y="11.1" width="1.27" height="0.88" transform="translate(-6.15 8.24) rotate(-45)"/><rect class="a" x="7.38" y="12.26" width="1.27" height="0.88" transform="translate(-6.63 9.39) rotate(-45)"/><rect class="a" x="5.76" y="13.88" width="1.27" height="0.88" transform="translate(-8.26 8.72) rotate(-45)"/><rect class="a" x="6.7" y="8.32" width="1.27" height="0.88" transform="translate(-4.05 7.75) rotate(-45)"/><rect class="a" x="2.98" y="14.36" width="1.27" height="0.88" transform="translate(-9.41 6.89) rotate(-45)"/><rect class="a" x="7.86" y="9.48" width="1.27" height="0.88" transform="translate(-4.53 8.91) rotate(-45)"/><rect class="a" x="4.6" y="12.73" width="1.27" height="0.88" transform="translate(-7.78 7.56) rotate(-45)"/><rect class="a" x="9.01" y="10.63" width="1.27" height="0.88" transform="translate(-5 10.06) rotate(-45)"/><rect class="a" x="5.55" y="7.17" width="1.27" height="0.88" transform="translate(-3.57 6.6) rotate(-45)"/><rect class="a" x="4.13" y="15.51" width="1.27" height="0.88" transform="translate(-9.88 8.04) rotate(-45)"/><path class="a" d="M.87,12.3a7.45,7.45,0,0,0,.17.82l.13.13.89-.9-.62-.62Z"/><rect class="a" x="8.23" y="17.52" width="1.27" height="0.88" transform="translate(-10.1 11.53) rotate(-45)"/><rect class="a" x="5.08" y="9.95" width="1.27" height="0.88" transform="translate(-5.67 7.08) rotate(-45)"/><path class="a" d="M7.31,18.9l.16,0-.09-.09Z"/><path class="a" d="M16.91,7a39.06,39.06,0,0,0-3.36-2.81L13.28,4A22.8,22.8,0,0,0,9.81,1.61,5.15,5.15,0,0,0,2.94,3.46,13,13,0,0,0,.72,10.71L6.94,4.49l5.79,5.8L4.9,18.12a6.74,6.74,0,0,0,.87.38l5-5L13.34,16l-2.93,2.93a12.87,12.87,0,0,0,4.93-1.71l.19-.12a7.87,7.87,0,0,0,3.65-4.62C19.67,10.32,18.43,8.4,16.91,7Z"/><rect class="a" x="9.86" y="15.9" width="1.27" height="0.88" transform="translate(-8.48 12.21) rotate(-45)"/><rect class="a" x="3.92" y="8.8" width="1.27" height="0.88" transform="translate(-5.2 5.93) rotate(-45)"/><rect class="a" x="1.82" y="13.2" width="1.27" height="0.88" transform="translate(-8.93 5.73) rotate(-45)"/><rect class="a" x="3.45" y="11.58" width="1.27" height="0.88" transform="translate(-7.3 6.41) rotate(-45)"/><rect class="a" x="2.3" y="10.42" width="1.27" height="0.88" transform="translate(-6.82 5.25) rotate(-45)"/></svg>