<?xml version="1.0" encoding="utf-8"?>
<svg xmlns="http://www.w3.org/2000/svg" viewBox="0 0 20 20"><defs><style>.a{fill:#fff;}</style></defs><title>digitalArtboard 1 copy 4</title><path class="a" d="M16.91,7a39.06,39.06,0,0,0-3.36-2.81L13.28,4A22.8,22.8,0,0,0,9.81,1.61,5.15,5.15,0,0,0,2.94,3.46c-2.18,3.29-3,7.7-1.3,11.34,0,0,.05.08.07.13l2.76-2.76.38.38L2,15.4A7,7,0,0,0,3.24,17a5.52,5.52,0,0,0,.76.6A8.47,8.47,0,0,0,8.69,19l4.46-4.47a.5.5,0,0,0,0-.73l-1.29-1.3.59-.59,1.62,1.62h0l.43.42,2.32.21a.9.9,0,0,1,0,1.27l-2.13,2.13c.22-.11.43-.24.65-.36l.19-.12a7.87,7.87,0,0,0,3.65-4.62C19.67,10.32,18.43,8.4,16.91,7ZM8.82,4.19l2.25,2.25L8.82,8.68,6.58,6.44Zm-1,7.14-1.5-1.5,1.5-1.49L9.36,9.83ZM9,12.82l-1,1-1-1,1-1ZM6.23,7.09l1,1.05-1,1-1.05-1Zm0,3.79,1,1-1,1-1-1Zm.36,3,.89.88-.89.88-.88-.88Zm.66,3.52-.88-.88.88-.88.88.88Zm1.32-1.52L7.68,15l.88-.88.88.88Zm1.52-1.79L9,13l1.05-1,1.05,1Zm1-1.75L9.29,10.52,11.1,8.71l1.81,1.81Z"/></svg>