<?xml version="1.0" encoding="utf-8"?>
<svg xmlns="http://www.w3.org/2000/svg" viewBox="0 0 20 20"><defs><style>.a{fill:#fff;}</style></defs><title>digitalArtboard 1 copy 6</title><path class="a" d="M7.33,17.26a.48.48,0,0,1,.68,0l.07.07L8.85,14,6.49,11.64l-3.33.77.06.06a.49.49,0,0,1,0,.69L1.86,14.53a.6.6,0,0,1-.28.13,1.47,1.47,0,0,0,.06.14A7.11,7.11,0,0,0,3.24,17a5.52,5.52,0,0,0,.76.6,7.35,7.35,0,0,0,2,1ZM3.57,14.87a.49.49,0,0,1-.69-.69.51.51,0,0,1,.69,0A.49.49,0,0,1,3.57,14.87Zm1.36,1.37a.5.5,0,0,1-.68,0,.49.49,0,0,1,0-.69.48.48,0,0,1,.68,0A.49.49,0,0,1,4.93,16.24Zm.69.68a.48.48,0,1,1,0,.68A.48.48,0,0,1,5.62,16.92Z"/><path class="a" d="M16.91,7a39.06,39.06,0,0,0-3.36-2.81L13.28,4A22.8,22.8,0,0,0,9.81,1.61,5.15,5.15,0,0,0,2.94,3.46,12.79,12.79,0,0,0,.76,11.52l.41-.41a.49.49,0,0,1,.69,0l.49.49,4.19-1a.49.49,0,0,1,.45.12L9.72,13.5a.47.47,0,0,1,.13.45l-1,4.18.49.5a.48.48,0,0,1,.13.38,12.81,12.81,0,0,0,5.83-1.79l.19-.12a7.87,7.87,0,0,0,3.65-4.62C19.67,10.32,18.43,8.4,16.91,7Zm-5.14,3.79a.51.51,0,0,1,.69,0,.49.49,0,1,1-.69,0Zm-6.84-.68a.48.48,0,1,1,0-.68A.48.48,0,0,1,4.93,10.08ZM6.3,8.71A.48.48,0,1,1,6.3,8,.48.48,0,0,1,6.3,8.71Zm1-.34L6,7a.48.48,0,0,1,0-.68L7.33,5A.48.48,0,0,1,8,5L9.38,6.32a.48.48,0,0,1,0,.68L8,8.37A.48.48,0,0,1,7.33,8.37Zm2.39.34a.48.48,0,1,1,0-.68A.48.48,0,0,1,9.72,8.71Zm1.37,7.53a.5.5,0,0,1-.68,0,.49.49,0,0,1,0-.69.48.48,0,0,1,.68,0A.49.49,0,0,1,11.09,16.24Zm0-6.16a.48.48,0,1,1,0-.68A.48.48,0,0,1,11.09,10.08Zm1.37,4.79a.49.49,0,0,1-.69-.69.51.51,0,0,1,.69,0A.49.49,0,0,1,12.46,14.87Zm3.07-1.71-1.36,1.37a.51.51,0,0,1-.69,0l-1.36-1.37a.49.49,0,0,1,0-.69l1.36-1.36a.49.49,0,0,1,.69,0l1.36,1.36A.49.49,0,0,1,15.53,13.16Z"/></svg>