<?xml version="1.0" encoding="utf-8"?>
<svg xmlns="http://www.w3.org/2000/svg" viewBox="0 0 20 20"><defs><style>.a{fill:#fff;}</style></defs><title>digitalArtboard 1 copy</title><path class="a" d="M17.84,8a5.42,5.42,0,0,1-8.53,3.61l1.16-1.17a3.72,3.72,0,0,0,2,.58A3.82,3.82,0,0,0,16.3,7.18a3.86,3.86,0,0,0-.1-.84c-.32-.29-.64-.58-1-.85a3.15,3.15,0,0,1,.49,1.69A3.24,3.24,0,0,1,10.89,10L12,8.94a1.83,1.83,0,1,0-1.31-1.75,1.49,1.49,0,0,0,.07.47L9.64,8.73A3.24,3.24,0,0,1,12.48,4a3.41,3.41,0,0,1,1,.17L13.28,4c-.26-.21-.53-.4-.8-.6A3.81,3.81,0,0,0,9.22,9.15L8,10.31A5.42,5.42,0,0,1,10.61,2.1c-.27-.16-.53-.34-.8-.49A5.15,5.15,0,0,0,2.94,3.46c-2.18,3.29-3,7.7-1.3,11.34A7.11,7.11,0,0,0,3.24,17a5.52,5.52,0,0,0,.76.6c3.18,2.23,8,1.65,11.34-.38l.19-.12a7.87,7.87,0,0,0,3.65-4.62A5.24,5.24,0,0,0,17.84,8ZM8.09,13.66A.29.29,0,0,1,8,14l-1.71,1.7a.3.3,0,0,1-.49-.1l-.48-1.29L4.05,13.8a.3.3,0,0,1-.11-.49L5.66,11.6a.26.26,0,0,1,.28-.06L7.2,12l5.08-5.07a.29.29,0,0,1,.41,0,.28.28,0,0,1,0,.4L7.62,12.41Z"/></svg>